<svg width="161" height="43" viewBox="0 0 161 43" fill="none" xmlns="http://www.w3.org/2000/svg">
<path d="M49.7655 24.6199L41.5121 16.3663C41.1996 16.0555 40.6943 16.0555 40.3836 16.3663L39.6371 17.1145C39.5628 17.1884 39.5039 17.2761 39.4636 17.3728C39.4234 17.4695 39.4027 17.5732 39.4027 17.678C39.4027 17.7827 39.4234 17.8864 39.4636 17.9831C39.5039 18.0798 39.5628 18.1675 39.6371 18.2414L47.8888 26.4965C48.2013 26.8074 48.7066 26.8074 49.0173 26.4965L49.7656 25.7483C50.0781 25.4358 50.0781 24.9306 49.7656 24.6199M28.3775 29.5018C28.2276 29.3525 28.0247 29.2687 27.8132 29.2687C27.6017 29.2687 27.3988 29.3525 27.249 29.5018L26.5025 30.2484C26.19 30.5609 26.19 31.066 26.5011 31.3768L34.7563 39.6303C34.8301 39.7046 34.9179 39.7636 35.0146 39.8038C35.1112 39.844 35.2149 39.8647 35.3197 39.8647C35.4244 39.8647 35.5281 39.844 35.6248 39.8038C35.7215 39.7636 35.8092 39.7046 35.8831 39.6303L36.6313 38.882C36.7055 38.8082 36.7645 38.7204 36.8047 38.6237C36.8449 38.527 36.8656 38.4234 36.8656 38.3187C36.8656 38.214 36.8449 38.1103 36.8047 38.0136C36.7645 37.9169 36.7055 37.8291 36.6313 37.7553L28.3778 29.5018H28.3775ZM28.3775 3.2331C28.2276 3.08382 28.0247 3 27.8132 3C27.6017 3 27.3988 3.08382 27.249 3.2331L26.5025 3.97963C26.19 4.29213 26.19 4.79741 26.5011 5.10811L34.7563 13.3616C34.8301 13.4359 34.9179 13.4948 35.0146 13.5351C35.1112 13.5753 35.2149 13.596 35.3197 13.596C35.4244 13.596 35.5281 13.5753 35.6248 13.5351C35.7215 13.4948 35.8092 13.4359 35.8831 13.3616L36.6313 12.6134C36.7055 12.5396 36.7645 12.4518 36.8047 12.3551C36.845 12.2584 36.8657 12.1547 36.8657 12.05C36.8657 11.9453 36.845 11.8416 36.8047 11.7449C36.7645 11.6482 36.7055 11.5604 36.6313 11.4866L28.3779 3.2331H28.3775ZM15.2431 16.3676C15.0933 16.2183 14.8904 16.1345 14.6789 16.1345C14.4674 16.1345 14.2645 16.2183 14.1146 16.3676L13.3681 17.1141C13.0556 17.4266 13.0556 17.9318 13.3667 18.2426L21.6219 26.4961C21.6957 26.5704 21.7835 26.6293 21.8802 26.6696C21.9769 26.7098 22.0806 26.7305 22.1853 26.7305C22.29 26.7305 22.3937 26.7098 22.4904 26.6696C22.5871 26.6293 22.6749 26.5704 22.7487 26.4961L23.4969 25.7478C23.5712 25.674 23.6301 25.5862 23.6703 25.4895C23.7105 25.3928 23.7312 25.2892 23.7312 25.1844C23.7312 25.0797 23.7105 24.9761 23.6703 24.8794C23.6301 24.7827 23.5712 24.6949 23.4969 24.6211L15.2434 16.3676H15.2431ZM22.7491 29.5014C22.4384 29.1907 21.9331 29.1907 21.6206 29.5014L13.3671 37.7549C13.2179 37.9044 13.134 38.107 13.134 38.3183C13.134 38.5296 13.2179 38.7322 13.3671 38.8817L14.1155 39.6299C14.1895 39.7042 14.2774 39.7631 14.3742 39.8034C14.4711 39.8436 14.5749 39.8643 14.6797 39.8643C14.7846 39.8643 14.8884 39.8436 14.9852 39.8034C15.082 39.7631 15.17 39.7042 15.244 39.6299L23.4957 31.3764C23.8082 31.0657 23.8082 30.5604 23.4957 30.2479L22.7491 29.5014ZM27.2496 26.4963C27.5603 26.8069 28.0655 26.8069 28.378 26.4963L36.6297 18.2427C36.9422 17.9302 36.9422 17.425 36.6297 17.1143L35.8832 16.3677C35.8092 16.2935 35.7213 16.2345 35.6245 16.1943C35.5276 16.1541 35.4238 16.1334 35.319 16.1334C35.2141 16.1334 35.1103 16.1541 35.0135 16.1943C34.9167 16.2345 34.8287 16.2935 34.7547 16.3677L26.5012 24.6194C26.3519 24.7693 26.2681 24.9722 26.2681 25.1837C26.2681 25.3952 26.3519 25.5981 26.5012 25.7479L27.2496 26.4963ZM9.61504 16.367C9.4652 16.2178 9.26231 16.1339 9.0508 16.1339C8.83929 16.1339 8.6364 16.2178 8.48656 16.367L0.233057 24.6205C0.0838192 24.77 0 24.9726 0 25.1839C0 25.3951 0.0838192 25.5977 0.233057 25.7472L0.979588 26.4956C1.05376 26.5698 1.14186 26.6288 1.23883 26.669C1.3358 26.7092 1.43975 26.7299 1.54473 26.7299C1.64971 26.7299 1.75366 26.7092 1.85063 26.669C1.9476 26.6288 2.0357 26.5698 2.10987 26.4956L10.3616 18.2421C10.4359 18.1681 10.4948 18.0801 10.535 17.9833C10.5752 17.8865 10.5959 17.7827 10.5959 17.6778C10.5959 17.573 10.5752 17.4692 10.535 17.3723C10.4948 17.2755 10.4359 17.1876 10.3616 17.1136L9.61504 16.367ZM14.1039 13.3505C14.4217 13.6683 14.9373 13.6683 15.2551 13.3505L23.4843 5.11783C23.8019 4.80185 23.8019 4.2863 23.4843 3.96852L22.7602 3.24282C22.4426 2.92685 21.9269 2.92518 21.6093 3.24282L13.3783 11.4738C13.2257 11.6265 13.14 11.8335 13.14 12.0493C13.14 12.2651 13.2257 12.4721 13.3783 12.6248L14.1039 13.3505Z" fill="white"/>
<path d="M67.04 10.24H62.02C61.4333 10.24 61.02 10.3533 60.78 10.58C60.5533 10.8067 60.44 11.2 60.44 11.76V13.74H65.66L65.46 16.22H60.44V22H57.66V10.66C57.66 9.60667 57.8867 8.86 58.34 8.42C58.8067 7.98 59.6 7.76 60.72 7.76H67.04V10.24ZM84.9169 7.76V17.12C84.9169 18.6667 84.3902 19.8867 83.3369 20.78C82.2969 21.6733 81.0102 22.12 79.4769 22.12C77.9435 22.12 76.6502 21.6733 75.5969 20.78C74.5569 19.8867 74.0369 18.6667 74.0369 17.12V7.76H76.8169V17.02C76.8169 17.9 77.0569 18.56 77.5369 19C78.0302 19.4267 78.6769 19.64 79.4769 19.64C80.2769 19.64 80.9235 19.4267 81.4169 19C81.9102 18.56 82.1569 17.9 82.1569 17.02V7.76H84.9169ZM102.076 10.24H98.2563V22H95.4763V10.24H91.6763V7.76H102.076V10.24ZM119.702 7.76V17.12C119.702 18.6667 119.175 19.8867 118.122 20.78C117.082 21.6733 115.795 22.12 114.262 22.12C112.729 22.12 111.435 21.6733 110.382 20.78C109.342 19.8867 108.822 18.6667 108.822 17.12V7.76H111.602V17.02C111.602 17.9 111.842 18.56 112.322 19C112.815 19.4267 113.462 19.64 114.262 19.64C115.062 19.64 115.709 19.4267 116.202 19C116.695 18.56 116.942 17.9 116.942 17.02V7.76H119.702ZM138.381 22H135.161L132.381 16.72H130.381V22H127.601V10.82C127.601 9.75333 127.848 8.98 128.341 8.5C128.835 8.00667 129.661 7.76 130.821 7.76H133.181C134.595 7.76 135.715 8.19333 136.541 9.06C137.381 9.91333 137.801 11 137.801 12.32C137.801 13.28 137.548 14.1133 137.041 14.82C136.548 15.5133 135.935 15.9933 135.201 16.26L138.381 22ZM133.001 14.4C133.588 14.4 134.068 14.2 134.441 13.8C134.828 13.3867 135.021 12.88 135.021 12.28C135.021 11.6667 134.835 11.1733 134.461 10.8C134.101 10.4267 133.615 10.24 133.001 10.24H131.621C130.795 10.24 130.381 10.66 130.381 11.5V14.4H133.001ZM156.487 22H153.587L152.787 19.54H148.007L147.227 22H144.327L148.887 8.96C149.087 8.50667 149.307 8.19333 149.547 8.02C149.801 7.84667 150.107 7.76 150.467 7.76C150.827 7.76 151.114 7.84 151.327 8C151.554 8.16 151.754 8.48 151.927 8.96L156.487 22ZM152.147 17.2L150.467 11.56L148.707 17.2H152.147Z" fill="white"/>
<path d="M62.552 28.944H60.26V36H58.592V28.944H56.312V27.456H62.552V28.944ZM67.5595 32.904V32.28C67.5595 31.688 67.4715 31.236 67.2955 30.924C67.1275 30.612 66.7715 30.456 66.2275 30.456C65.3475 30.456 64.9075 31.048 64.9075 32.232V32.856C64.9075 34.128 65.3475 34.764 66.2275 34.764C66.7955 34.764 67.1675 34.552 67.3435 34.128C67.4875 33.792 67.5595 33.384 67.5595 32.904ZM69.1195 32.544C69.1195 34.024 68.8395 35.016 68.2795 35.52C67.8075 35.952 67.1235 36.168 66.2275 36.168C65.0835 36.168 64.3115 35.832 63.9115 35.16C63.5355 34.544 63.3475 33.672 63.3475 32.544C63.3475 31.488 63.5355 30.66 63.9115 30.06C64.3275 29.388 65.0835 29.052 66.1795 29.052C67.2835 29.052 68.0475 29.348 68.4715 29.94C68.9035 30.524 69.1195 31.392 69.1195 32.544ZM75.4671 36H74.4231L73.9431 35.172L72.2751 36.072C71.3471 36.072 70.7231 35.736 70.4031 35.064C70.2431 34.736 70.1311 34.384 70.0671 34.008C70.0111 33.624 69.9831 33.228 69.9831 32.82C69.9831 32.404 69.9871 32.1 69.9951 31.908C70.0031 31.708 70.0231 31.48 70.0551 31.224C70.0871 30.96 70.1311 30.74 70.1871 30.564C70.2511 30.388 70.3391 30.208 70.4511 30.024C70.5631 29.832 70.6991 29.68 70.8591 29.568C71.2191 29.32 71.6871 29.196 72.2631 29.196H73.9071V26.976H75.4671V36ZM73.9071 33.816V30.6H72.7191C72.2791 30.6 71.9711 30.768 71.7951 31.104C71.6271 31.44 71.5431 31.944 71.5431 32.616C71.5431 33.28 71.6231 33.748 71.7831 34.02C71.9511 34.292 72.2631 34.428 72.7191 34.428L73.9071 33.816ZM82.0497 36H81.0057L80.5257 35.172L78.8577 36.072C77.9297 36.072 77.3057 35.736 76.9857 35.064C76.8257 34.736 76.7137 34.384 76.6497 34.008C76.5937 33.624 76.5657 33.228 76.5657 32.82C76.5657 32.404 76.5697 32.1 76.5777 31.908C76.5857 31.708 76.6057 31.48 76.6377 31.224C76.6697 30.96 76.7137 30.74 76.7697 30.564C76.8337 30.388 76.9217 30.208 77.0337 30.024C77.1457 29.832 77.2817 29.68 77.4417 29.568C77.8017 29.32 78.2697 29.196 78.8457 29.196H80.4897L82.0497 29.1V36ZM80.4897 33.816V30.6H79.3017C78.8617 30.6 78.5537 30.768 78.3777 31.104C78.2097 31.44 78.1257 31.944 78.1257 32.616C78.1257 33.28 78.2057 33.748 78.3657 34.02C78.5337 34.292 78.8457 34.428 79.3017 34.428L80.4897 33.816ZM88.8678 29.148L86.2638 36.768C86.1438 37.112 85.9878 37.38 85.7958 37.572C85.4758 37.892 85.0278 38.052 84.4518 38.052H83.7198V36.648H84.1998C84.4238 36.648 84.5878 36.608 84.6918 36.528C84.8038 36.456 84.8998 36.308 84.9798 36.084L85.0998 35.748L83.0358 29.148H84.6798L85.9038 33.912L87.2238 29.148H88.8678ZM96.3506 33.3H92.6546V31.848H96.3506V33.3ZM106.637 28.944H104.345V36H102.677V28.944H100.397V27.456H106.637V28.944ZM111.644 32.904V32.28C111.644 31.688 111.556 31.236 111.38 30.924C111.212 30.612 110.856 30.456 110.312 30.456C109.432 30.456 108.992 31.048 108.992 32.232V32.856C108.992 34.128 109.432 34.764 110.312 34.764C110.88 34.764 111.252 34.552 111.428 34.128C111.572 33.792 111.644 33.384 111.644 32.904ZM113.204 32.544C113.204 34.024 112.924 35.016 112.364 35.52C111.892 35.952 111.208 36.168 110.312 36.168C109.168 36.168 108.396 35.832 107.996 35.16C107.62 34.544 107.432 33.672 107.432 32.544C107.432 31.488 107.62 30.66 107.996 30.06C108.412 29.388 109.168 29.052 110.264 29.052C111.368 29.052 112.132 29.348 112.556 29.94C112.988 30.524 113.204 31.392 113.204 32.544ZM123.404 36H121.844V31.74C121.844 31.316 121.792 31.02 121.688 30.852C121.592 30.684 121.42 30.6 121.172 30.6L119.768 31.188V36H118.208V31.74C118.208 30.98 117.944 30.6 117.416 30.6L116.132 31.188V36H114.572V29.148H115.736L116.096 29.964L117.896 29.076C118.52 29.076 118.992 29.38 119.312 29.988L121.544 29.076C122.168 29.076 122.632 29.288 122.936 29.712C123.248 30.128 123.404 30.692 123.404 31.404V36ZM128.912 32.904V32.28C128.912 31.688 128.824 31.236 128.648 30.924C128.48 30.612 128.124 30.456 127.58 30.456C126.7 30.456 126.26 31.048 126.26 32.232V32.856C126.26 34.128 126.7 34.764 127.58 34.764C128.148 34.764 128.52 34.552 128.696 34.128C128.84 33.792 128.912 33.384 128.912 32.904ZM130.472 32.544C130.472 34.024 130.192 35.016 129.632 35.52C129.16 35.952 128.476 36.168 127.58 36.168C126.436 36.168 125.664 35.832 125.264 35.16C124.888 34.544 124.7 33.672 124.7 32.544C124.7 31.488 124.888 30.66 125.264 30.06C125.68 29.388 126.436 29.052 127.532 29.052C128.636 29.052 129.4 29.348 129.824 29.94C130.256 30.524 130.472 31.392 130.472 32.544ZM135.475 29.172L135.043 30.708C134.923 30.66 134.787 30.636 134.635 30.636C134.235 30.636 133.743 30.808 133.159 31.152V36H131.599V29.148H132.763L133.123 29.748L134.779 29.064C134.859 29.056 134.967 29.052 135.103 29.052C135.239 29.052 135.363 29.092 135.475 29.172ZM140.271 29.172L139.839 30.708C139.719 30.66 139.583 30.636 139.431 30.636C139.031 30.636 138.539 30.808 137.955 31.152V36H136.395V29.148H137.559L137.919 29.748L139.575 29.064C139.655 29.056 139.763 29.052 139.899 29.052C140.035 29.052 140.159 29.092 140.271 29.172ZM145.139 32.904V32.28C145.139 31.688 145.051 31.236 144.875 30.924C144.707 30.612 144.351 30.456 143.807 30.456C142.927 30.456 142.487 31.048 142.487 32.232V32.856C142.487 34.128 142.927 34.764 143.807 34.764C144.375 34.764 144.747 34.552 144.923 34.128C145.067 33.792 145.139 33.384 145.139 32.904ZM146.699 32.544C146.699 34.024 146.419 35.016 145.859 35.52C145.387 35.952 144.703 36.168 143.807 36.168C142.663 36.168 141.891 35.832 141.491 35.16C141.115 34.544 140.927 33.672 140.927 32.544C140.927 31.488 141.115 30.66 141.491 30.06C141.907 29.388 142.663 29.052 143.759 29.052C144.863 29.052 145.627 29.348 146.051 29.94C146.483 30.524 146.699 31.392 146.699 32.544ZM156.251 29.148L154.343 36H153.059L151.751 31.836L150.443 36H149.159L147.239 29.148H148.895L149.903 33.612L150.947 29.94C151.067 29.412 151.339 29.148 151.763 29.148C151.963 29.148 152.123 29.212 152.243 29.34C152.363 29.468 152.463 29.668 152.543 29.94L153.599 33.612L154.607 29.148H156.251Z" fill="white" fill-opacity="0.5"/>
</svg>
